<?xml version="1.0" encoding="utf-8"?>
<!-- Generator: Adobe Illustrator 25.0.0, SVG Export Plug-In . SVG Version: 6.00 Build 0)  -->
<svg version="1.1" id="Laag_1" xmlns="http://www.w3.org/2000/svg" xmlns:xlink="http://www.w3.org/1999/xlink" x="0px" y="0px"
	 viewBox="0 0 770 354" style="enable-background:new 0 0 770 354;" xml:space="preserve">
<style type="text/css">
	.st0{fill-rule:evenodd;clip-rule:evenodd;fill:#0050FF;}
	.st1{fill:#FFFFFF;}
</style>
<rect id="Rectangle" y="0" class="st0" width="770" height="354"/>
<path id="logo_1_" class="st1" d="M332.3,107.3h-8.4v44.4h8.1c3.4,0,5.7-1.3,7-3.8c1.2-2.5,1.8-6,1.9-10.4l0-0.4v-20l0-0.2
	c-0.1-6.3-2.9-9.5-8.4-9.5L332.3,107.3z M331.3,183.1h-7.4v57.9l4,0.2c10.3,0,15.5-4.9,15.6-14.6l0-0.3v-24.9l0-0.4
	c0-5.9-0.9-10.3-2.7-13.3c-1.8-3-4.8-4.6-9.2-4.7L331.3,183.1z M557.3,111.5c-5.7,0-8.9,3.6-9.8,10.9l-0.1,0.5
	c-0.1,1.1-0.2,2.2-0.2,3.4l0,0.3v97.5l0,0.4c0,5.6,0.7,9.8,2.1,12.6c1.4,2.9,4,4.4,7.7,4.4c3.6,0,6-1.6,7.2-4.7
	c1.2-3,1.8-7.2,1.9-12.6l0-0.4v-97.7l0-0.4c0-4.2-0.6-7.6-1.7-10.2C563.2,112.8,560.8,111.5,557.3,111.5z M444.2,111.5
	c-5.7,0-8.9,3.6-9.8,10.9l-0.1,0.5c0,0.4-0.1,0.9-0.1,1.4l0,0.6c0,0.5,0,1,0,1.5l0,0.3v97.5l0,0.4c0,5.6,0.7,9.8,2.1,12.6
	c1.4,2.9,4,4.4,7.7,4.4c3.6,0,6-1.6,7.2-4.7c1.2-3,1.8-7.2,1.9-12.6l0-0.4v-97.7l0-0.4c0-4.2-0.6-7.6-1.7-10.2
	C450.1,112.8,447.8,111.5,444.2,111.5z M703.4,76.6v38.4h-23.7v161.5h-40V114.9h-23.7V76.6H703.4z M284.8,76.6h54.6
	c14.4,0.1,24.8,3.6,31.3,10.7c6.1,6.6,9.4,17.2,9.8,31.6l0,0.9c0,0.6,0,1.3,0,1.9l0,9.3l0,0.6c-0.1,18.7-7,29.9-20.5,33.6
	c8.4,2.2,14.3,7.2,17.7,15.1c3.4,7.9,5.1,18.4,5.1,31.4v0.6l0,1.3c-0.1,7.3-0.5,14-1.4,20.1l-0.1,1c-1.5,10.3-4.2,18.7-8,25.3
	c-6.3,10.8-17.6,16.3-33.9,16.4H339h-54.2V76.6z M269,76.6v38.6h-39.3V154h37.7v37.7h-37.7v45.8h41.9v38.9h-82.6V76.6H269z
	 M120.7,70.1l0.8,0.1l2.2,0.4l0.9,0.2c0.5,0.1,1,0.2,1.5,0.2l0.5,0.1c3.4,0.4,7.3,1.5,11.9,3.1l-2.2,30.5c-0.5,5.8-5.5,8.6-11.2,8.1
	c-0.9-0.1-1.7-0.3-2.6-0.5l-8.8-5.9c-4.6,1.8-7.4,6.9-8.2,13.8l-0.1,0.5l-0.1,0.5c-0.1,1.2-0.2,2.4-0.2,3.7l0,0.3l0,0.4l0,0.4l0,0.5
	l0.1,0.8l0.1,0.8l0.1,0.9l0.1,1l0.2,1.4l0.2,1.1l0.3,1.6l0.2,1.2l0.2,1.2l0.2,0.8l0.3,1.2l0.3,1.2l0.2,0.8l0.3,1.2l0.2,0.8l0.3,1.2
	l0.2,0.8l0.2,0.7l0.2,0.7l0.2,0.7l0.1,0.3l0.2,0.6l0.2,0.6l0.1,0.2l0.1,0.4l0.1,0.3c0.6,1.3,1.2,2.2,1.8,2.5
	c1.2,0.5,2.8,0.7,4.9,0.6l0.6,0l0.6,0l0.7-0.1l0.3,0l0.7-0.1l0.7-0.1l0.8-0.1l0.4-0.1l0.8-0.1c0.3,0,0.5-0.1,0.8-0.1l0.9-0.2
	l0.9-0.2l0.9-0.2l1.2-0.3l1.2-0.3l1.5-0.4l1.1-0.3l1.6-0.4c6.8-1.8,10.5-5.7,13-10.4l0.2-0.4l0.2-0.4c0-0.1,0.1-0.1,0.1-0.2l0.2-0.4
	l0.2-0.4l0.2-0.4l0.2-0.4l0.2-0.4l0.2-0.4l0.2-0.4l0.2-0.4l0.2-0.6l0.2-0.6l0.2-0.5c0.2-0.5,0.4-1.1,0.5-1.6l-6.9-3.6l4.1-51.9
	l19.2,6.4c4.3,1.3,7.1,5.4,6.8,9.9l-1.5,22.7l-2.5,24.5c0,0.2,0,0.4-0.1,0.5c0,0.2-0.1,0.5-0.2,0.7l-0.1,0.4l-0.1,0.2l-0.2,0.5
	c-0.1,0.2-0.2,0.5-0.3,0.7l-0.2,0.5c-0.1,0.3-0.2,0.5-0.4,0.8l-0.3,0.6l-1,2l-0.4,0.8l-0.4,0.8l-0.3,0.6l-0.3,0.6l-0.3,0.6
	c-0.1,0.1-0.1,0.2-0.2,0.3l-0.4,0.6l-0.4,0.6c-1.8,3-4.1,6.2-6.5,8c-3.7,2.8-6.5,4.2-9.6,5.4l-0.6,0.2l-0.6,0.2
	c-0.1,0-0.2,0.1-0.3,0.1l-0.6,0.2l-0.6,0.2l-0.9,0.3l-1.2,0.4l-2.3,0.7l-0.7,0.2l0.6,0c0.1,0,0.2,0,0.3,0l0.7,0l0.7,0l0.7,0.1
	l0.7,0.1c0.1,0,0.2,0,0.4,0l0.7,0.1l0.7,0.1l0.7,0.1c0.1,0,0.2,0,0.3,0l0.7,0.1l0.6,0.1c0.1,0,0.2,0,0.3,0l0.6,0.1
	c0.4,0.1,0.7,0.1,1.1,0.2c4.4,0.8,7.1,3.9,8.5,6.7l0.2,0.3c0,0.1,0,0.1,0.1,0.2l0.1,0.3c0.1,0.2,0.2,0.4,0.2,0.6l0.2,0.4l0,0
	l0.2,1.3l0.3,2.7l0.6,5.6l1.1,10.2l1.6,14.8l2,18.8l1.3,12.4l1.3,12.5l0.7,6.9l0.3,3.4l0.4,4.3l0.2,2.3l0.1,1.4l0.1,0.7l0,0.6l0,0.4
	c0,0.2,0,0.4,0,0.4c-0.7,0.7-1.6,1.1-2.6,1.1l-29.7,0c-0.9,0-1.7-0.6-1.9-1.5l-10.9-81c-5.3,0.9-13,0.3-20.9-1.6
	c0,0-0.1,0.1-0.1,0.3l0,0.2c0,0,0,0.1,0,0.1l0,0.2l0,0.4l0,0.5l0,0.5l0,0.6l0,1l0,0.8l0,1.2l0,1.7l0,1.5l0,1.7l0,2.8l-0.1,4.2l0,4.2
	l0,3.9l0,5l0,7.1l0,6.9l0,6.6l0,11.7l0,9.6l0,9.4c0,1.1-0.9,1.9-1.9,1.9h-29c-1,0-1.9-0.9-1.9-1.9V132.6l0.1-1.4l0.1-1.4l0.1-1.4
	l0.1-1.4l0.1-0.9l0.1-0.9l0.1-0.9l0.1-0.9l0.1-0.9l0.1-0.9c0-0.1,0-0.3,0.1-0.4l0.1-0.9l0.1-0.8l0.1-0.8l0.1-0.8l0.1-0.8l0.1-0.8
	c0-0.1,0-0.3,0.1-0.4l0.1-0.8l0.1-0.8l0.2-0.8l0.2-0.8c1.4-6.7,3.4-12.1,6.5-15.4c5.3-5.8,11-7.9,16.8-8.7l0.5-0.1
	c0.2,0,0.4,0,0.5-0.1c1.7-11.9,8.7-17.7,18-18.7C116.6,69.6,118.6,69.8,120.7,70.1z M557,74.7c16.1,0,28.4,4.4,36.8,13.1
	c8.3,8.7,12.5,21.5,12.6,38.5l0,0.5V222l0,0.5c-0.1,17.7-4.3,31.4-12.6,41.1c-8.4,9.8-20.6,14.7-36.8,14.7s-28.4-4.9-36.8-14.8
	c-8.3-9.8-12.5-23.4-12.6-41l0-0.5v-95.2l0-0.5c0.1-17,4.3-29.8,12.6-38.5C528.6,79.1,540.9,74.7,557,74.7z M444,74.7
	c16.1,0,28.4,4.4,36.8,13.1c8.3,8.7,12.5,21.5,12.6,38.5l0,0.5V222l0,0.5c-0.1,17.7-4.3,31.4-12.6,41.1
	c-8.4,9.8-20.6,14.7-36.8,14.7s-28.4-4.9-36.8-14.8c-8.3-9.8-12.5-23.4-12.6-41l0-0.5v-95.2l0-0.5c0.1-17,4.3-29.8,12.6-38.5
	C415.6,79.1,427.8,74.7,444,74.7z"/>
</svg>
